<?xml version="1.0" encoding="utf-8"?>
<!-- Generator: Adobe Illustrator 15.0.0, SVG Export Plug-In . SVG Version: 6.00 Build 0)  -->
<!DOCTYPE svg PUBLIC "-//W3C//DTD SVG 1.1//EN" "http://www.w3.org/Graphics/SVG/1.1/DTD/svg11.dtd">
<svg version="1.1" id="Layer_1" xmlns="http://www.w3.org/2000/svg" xmlns:xlink="http://www.w3.org/1999/xlink" x="0px" y="0px"
	 width="49.964px" height="49.964px" viewBox="0 0 49.964 49.964" enable-background="new 0 0 49.964 49.964" xml:space="preserve">
<circle fill="none" stroke="#1BB14C" stroke-miterlimit="10" cx="24.982" cy="24.982" r="24.482"/>
<path fill="#FFFFFF" d="M27.86,43.257h-8.192V24.299l-5.219,0.015v-6.141h5.244v-4.159c0,0,0.075-1.916,1.059-3.328
	c0.983-1.412,1.637-2.079,2.899-2.646c1.319-0.594,1.336-0.581,2.269-0.706c0.933-0.126,7.513-0.101,7.513-0.101v6.176
	c0,0-2.757-0.056-3.328,0.049c-0.983,0.178-1.132,0.353-1.916,1.212c-0.529,0.58-0.479,3.529-0.479,3.529h5.723v6.09l-5.572,0.011
	V43.257z"/>
</svg>
