<?xml version="1.0" encoding="utf-8"?>
<!-- Generator: Adobe Illustrator 15.0.0, SVG Export Plug-In . SVG Version: 6.00 Build 0)  -->
<!DOCTYPE svg PUBLIC "-//W3C//DTD SVG 1.1//EN" "http://www.w3.org/Graphics/SVG/1.1/DTD/svg11.dtd">
<svg version="1.1" id="Layer_1" xmlns="http://www.w3.org/2000/svg" xmlns:xlink="http://www.w3.org/1999/xlink" x="0px" y="0px"
	 width="49.964px" height="49.964px" viewBox="0 0 49.964 49.964" enable-background="new 0 0 49.964 49.964" xml:space="preserve">
<circle fill="none" stroke="#1BB14C" stroke-miterlimit="10" cx="24.982" cy="24.982" r="24.482"/>
<path fill="#FFFFFF" d="M9.952,37.733c0,0,0.329,1.367,5.308,2.931c5.467,1.718,9.286,0.433,11.941-0.935
	c2.654-1.367,5.238-3.356,7.476-6.959c2.285-3.678,2.376-3.577,3.263-7.882c0.879-4.274,0.563-6.225,0.563-6.225
	s0.914-0.657,2.134-2.344c1.039-1.439,1.099-1.802,1.099-1.802s-0.79,0.265-1.879,0.666c-1.088,0.402-1.354,0.385-1.354,0.385
	s0.833-0.711,1.482-1.846c0.676-1.177,0.999-2.335,0.999-2.335s-0.561,0.374-2.195,1.098c-1.633,0.723-2.124,0.759-2.124,0.759
	s0.21,0.157-1.651-1.354c-1.993-1.618-5.494-1.021-7.514,1.133c-3.014,3.21-2.163,7.239-2.163,7.239S20.606,20,16.787,17.181
	c-4.005-2.954-5.364-6.211-5.364-6.211s-0.66,2.745-0.395,4.707c0.255,1.887,0.234,2.921,1.716,5.453
	c0.382,0.651,1.641,1.643,1.641,1.643l-3.251-1.155c0,0-0.446,4.191,2.412,6.201c2.858,2.013,3.397,1.557,3.397,1.557l-3.496-0.051
	c0,0,0.923,2.884,2.762,4.171c1.837,1.286,3.39,1.169,3.39,1.169s-1.462,1.424-4.082,2.355C13.075,37.892,9.952,37.733,9.952,37.733
	z"/>
</svg>
